<svg width="62" height="25" viewBox="0 0 62 25" fill="none" xmlns="http://www.w3.org/2000/svg">
<path d="M2.31214 19.9285C2.03669 19.5692 1.66941 18.9952 1.44257 18.5702C0.119292 16.0813 0.0598797 13.5048 1.17251 11.0334C2.39856 8.32108 4.74265 6.24848 7.77267 5.18808C11.5805 3.86039 15.7879 4.11892 19.4391 5.87603C21.7562 6.95396 23.3981 8.61905 24.6458 10.9765C24.8024 11.2788 24.9428 11.5987 25.0833 11.8747L2.31214 19.9285ZM9.91692 9.18869C7.21096 10.1308 5.81747 12.1902 6.10913 14.6002L17.5595 10.5996C15.5881 8.72421 13.028 8.10199 9.91692 9.18869V9.18869ZM18.9854 17.891C18.98 17.891 18.98 17.8954 18.98 17.8954L18.7423 17.7639C18.0564 18.6622 16.9924 19.394 15.6475 19.8672C13.0874 20.7698 10.7163 20.5376 9.00953 19.3238L8.8529 19.5166C8.8529 19.5166 8.8529 19.5123 8.8475 19.5123L5.94169 23.0396C6.66544 23.4471 7.43781 23.7889 8.24797 24.065C11.4562 25.1473 14.7401 25.0947 17.9754 23.9554C20.3141 23.1317 22.1504 21.8785 23.4035 20.2878L18.9854 17.891ZM33.0391 0V19.6043L36.7983 20.84L34.6648 24.88L30.5168 23.4778C29.5878 23.1492 28.9505 22.6497 28.4752 22.0844C28.0161 21.5104 27.6758 20.7173 27.6758 19.6569V0H33.0391ZM42.7719 14.6134C42.7719 12.9439 43.6847 11.4453 45.1214 10.4287L41.265 6.94081C38.6509 8.81623 37.0035 11.5549 37.0035 14.6046C36.9981 17.6588 38.6455 20.4018 41.2542 22.2772L45.1052 18.7893C43.6739 17.7683 42.7719 16.2785 42.7719 14.6134V14.6134ZM49.6205 20.1739C48.8644 20.1739 48.1298 20.0688 47.4493 19.8847L45.6075 24.3235C46.866 24.6653 48.2108 24.8537 49.6151 24.8537C55.7184 24.8581 60.8116 21.3439 61.9945 16.6772L56.3341 15.7395C55.6914 18.2766 52.9314 20.1783 49.6205 20.1739V20.1739ZM49.6367 4.37306C48.2378 4.37306 46.893 4.5571 45.6345 4.8945L47.4601 9.33767C48.146 9.15363 48.8752 9.05285 49.6313 9.05285C52.9476 9.05723 55.713 10.9677 56.3395 13.5092L61.9999 12.5802C60.8387 7.90481 55.7454 4.37744 49.6367 4.37306V4.37306Z" fill="white"/>
</svg>
